<svg id="svg" version="1.1" xmlns="http://www.w3.org/2000/svg" xmlns:xlink="http://www.w3.org/1999/xlink" width="400" height="400" viewBox="0, 0, 400,400"><g id="svgg"><path id="path0" d="M208.571 135.490 C 205.882 140.015,202.944 144.975,202.041 146.511 C 201.139 148.048,200.340 149.310,200.267 149.317 C 200.193 149.324,197.342 144.560,193.930 138.731 C 190.518 132.902,187.626 127.974,187.502 127.780 C 187.346 127.535,186.540 128.680,184.872 131.513 C 179.503 140.633,138.114 210.886,133.231 219.169 C 130.344 224.065,128.040 228.129,128.112 228.201 C 128.350 228.439,236.107 228.564,253.898 228.347 L 271.395 228.133 254.484 198.667 C 245.182 182.460,232.281 159.960,225.814 148.667 C 219.347 137.373,213.922 127.937,213.758 127.698 C 213.511 127.336,212.628 128.662,208.571 135.490 M231.067 163.804 C 240.600 180.115,252.162 199.881,256.761 207.730 C 261.359 215.578,265.481 222.630,265.920 223.400 L 266.718 224.800 255.527 224.800 L 244.337 224.800 223.369 188.978 L 202.400 153.155 207.933 143.657 C 210.977 138.433,213.527 134.156,213.600 134.154 C 213.673 134.151,221.533 147.494,231.067 163.804 M192.400 142.973 C 195.040 147.526,197.419 151.635,197.687 152.103 L 198.174 152.954 181.203 181.477 C 171.869 197.165,162.230 213.386,159.783 217.525 L 155.333 225.049 144.851 225.058 L 134.369 225.067 135.251 223.505 C 138.213 218.263,187.349 134.669,187.462 134.681 C 187.538 134.689,189.760 138.420,192.400 142.973 M221.217 192.286 C 231.390 209.676,239.791 224.106,239.885 224.352 C 240.046 224.770,237.408 224.800,200.295 224.800 C 178.426 224.800,160.533 224.739,160.533 224.665 C 160.533 224.533,195.168 165.370,198.592 159.653 L 200.317 156.773 201.519 158.720 C 202.180 159.791,211.044 174.895,221.217 192.286 M102.400 247.733 L 102.400 248.800 105.333 248.800 L 108.267 248.800 108.267 256.800 L 108.267 264.800 109.333 264.800 L 110.400 264.800 110.400 256.800 L 110.400 248.800 113.333 248.800 L 116.267 248.800 116.267 247.733 L 116.267 246.667 109.333 246.667 L 102.400 246.667 102.400 247.733 M119.200 255.733 L 119.200 264.800 120.400 264.800 L 121.600 264.800 121.600 261.067 L 121.600 257.333 122.938 257.333 L 124.276 257.333 126.677 260.600 C 129.964 265.072,129.680 264.800,131.064 264.800 C 131.725 264.800,132.267 264.742,132.267 264.671 C 132.267 264.442,126.964 257.383,126.642 257.185 C 126.453 257.068,126.869 256.737,127.702 256.341 C 129.710 255.387,130.496 254.219,130.621 252.003 C 130.845 248.051,128.595 246.667,121.951 246.667 L 119.200 246.667 119.200 255.733 M139.908 246.867 C 139.730 247.155,132.800 264.511,132.800 264.668 C 132.800 264.958,134.886 264.778,135.131 264.467 C 135.276 264.283,135.761 263.173,136.208 262.000 L 137.023 259.867 141.120 259.794 L 145.218 259.720 146.111 262.112 C 147.045 264.614,147.221 264.800,148.662 264.800 L 149.548 264.800 145.922 255.733 L 142.297 246.667 141.164 246.667 C 140.541 246.667,139.976 246.757,139.908 246.867 M149.985 247.133 C 150.082 247.390,151.738 251.476,153.664 256.213 L 157.168 264.826 158.243 264.746 L 159.318 264.667 162.961 255.733 C 166.951 245.951,166.900 246.216,164.683 246.772 C 164.193 246.895,159.217 258.513,158.361 261.532 C 158.309 261.715,157.022 258.715,155.501 254.866 C 152.157 246.404,152.305 246.667,150.899 246.667 C 149.972 246.667,149.836 246.736,149.985 247.133 M169.067 255.728 L 169.067 264.800 174.667 264.800 L 180.267 264.800 180.267 263.867 L 180.267 262.933 175.867 262.933 L 171.467 262.933 171.467 259.733 L 171.467 256.533 174.933 256.533 L 178.400 256.533 178.400 255.600 L 178.400 254.667 174.925 254.667 L 171.449 254.667 171.525 251.667 L 171.600 248.667 175.950 248.593 L 180.299 248.520 180.216 247.660 L 180.133 246.800 174.600 246.728 L 169.067 246.656 169.067 255.728 M183.733 255.718 L 183.733 264.800 188.800 264.800 L 193.867 264.800 193.867 263.733 L 193.867 262.667 190.004 262.667 L 186.141 262.667 186.071 254.733 L 186.000 246.800 184.867 246.718 L 183.733 246.636 183.733 255.718 M196.533 255.733 L 196.533 264.800 197.733 264.800 L 198.933 264.800 198.933 255.733 L 198.933 246.667 197.733 246.667 L 196.533 246.667 196.533 255.733 M203.733 255.716 L 203.733 264.800 204.813 264.800 L 205.892 264.800 205.813 257.866 C 205.769 254.053,205.793 250.937,205.867 250.943 C 205.940 250.948,208.382 254.068,211.294 257.876 C 216.068 264.121,216.663 264.800,217.360 264.800 L 218.133 264.800 218.133 255.733 L 218.133 246.667 217.200 246.667 L 216.267 246.667 216.267 253.657 C 216.267 259.795,216.219 260.600,215.876 260.257 C 215.661 260.042,213.230 256.927,210.473 253.333 C 205.921 247.402,205.380 246.792,204.596 246.716 L 203.733 246.633 203.733 255.716 M225.200 247.110 C 220.281 249.703,221.389 254.603,227.333 256.543 C 230.908 257.709,231.942 259.914,229.881 261.975 C 228.705 263.152,225.777 263.198,224.138 262.067 C 222.566 260.981,220.776 261.753,221.854 263.051 C 224.439 266.166,231.111 265.232,232.654 261.538 C 234.038 258.225,232.815 256.237,228.316 254.494 C 225.243 253.303,224.533 252.697,224.533 251.262 C 224.533 248.773,227.435 247.772,230.386 249.243 C 231.909 250.002,232.533 249.787,232.533 248.506 C 232.533 247.089,227.175 246.068,225.200 247.110 M240.875 247.229 C 232.809 250.330,234.316 263.609,242.862 264.744 C 248.989 265.557,253.191 261.892,253.197 255.728 C 253.205 248.963,247.178 244.807,240.875 247.229 M261.521 247.036 C 254.222 249.749,253.722 260.988,260.757 264.209 C 264.517 265.930,272.378 263.726,270.210 261.558 L 269.627 260.975 268.590 261.694 C 263.748 265.049,258.218 261.777,258.293 255.600 C 258.361 249.955,263.246 246.854,267.963 249.461 L 269.393 250.251 269.905 249.618 C 271.429 247.737,264.979 245.751,261.521 247.036 M273.867 255.733 L 273.867 264.800 274.933 264.800 L 276.000 264.800 276.000 260.667 L 276.000 256.533 280.933 256.533 L 285.867 256.533 285.867 260.667 L 285.867 264.800 287.067 264.800 L 288.267 264.800 288.267 255.733 L 288.267 246.667 287.067 246.667 L 285.867 246.667 285.867 250.806 L 285.867 254.945 281.000 254.873 L 276.133 254.800 276.060 250.733 L 275.986 246.667 274.926 246.667 L 273.867 246.667 273.867 255.733 M293.067 255.733 L 293.067 264.800 294.267 264.800 L 295.467 264.800 295.467 255.733 L 295.467 246.667 294.267 246.667 L 293.067 246.667 293.067 255.733 M126.862 249.158 C 130.565 251.096,128.268 255.446,123.533 255.461 L 121.600 255.467 121.600 251.967 L 121.600 248.466 123.800 248.586 C 125.136 248.659,126.339 248.883,126.862 249.158 M246.280 248.831 C 252.146 250.308,252.458 260.491,246.700 262.522 C 241.983 264.185,237.949 260.895,238.034 255.454 C 238.109 250.588,241.725 247.684,246.280 248.831 M142.998 254.000 C 143.731 255.907,144.388 257.617,144.460 257.800 C 144.560 258.056,143.810 258.133,141.229 258.133 C 139.380 258.133,137.866 258.043,137.864 257.933 C 137.852 256.823,141.218 249.125,141.428 249.783 C 141.560 250.196,142.266 252.093,142.998 254.000 " stroke="none" fill="#1c7134" fill-rule="evenodd"></path><path id="path1" d="M0.000 200.000 L 0.000 400.000 200.000 400.000 L 400.000 400.000 400.000 200.000 L 400.000 0.000 200.000 0.000 L 0.000 0.000 0.000 200.000 M242.771 177.867 L 271.741 228.400 199.827 228.467 C 160.274 228.504,127.866 228.488,127.810 228.432 C 127.722 228.344,186.732 127.930,187.178 127.410 C 187.267 127.305,190.214 132.135,193.727 138.144 C 198.612 146.501,200.183 148.990,200.412 148.734 C 200.576 148.550,203.578 143.573,207.083 137.674 C 210.587 131.775,213.533 127.035,213.628 127.141 C 213.723 127.247,226.838 150.073,242.771 177.867 M208.040 143.891 C 205.063 148.964,202.682 153.256,202.748 153.428 C 202.911 153.853,244.010 224.080,244.246 224.336 C 244.349 224.448,249.360 224.508,255.382 224.470 L 266.331 224.400 262.959 218.667 C 261.104 215.513,249.282 195.323,236.689 173.800 C 224.095 152.277,213.715 134.667,213.621 134.667 C 213.528 134.667,211.016 138.817,208.040 143.891 M161.119 179.571 C 146.720 204.122,134.865 224.402,134.774 224.638 C 134.510 225.326,154.659 225.289,155.252 224.600 C 156.120 223.592,197.897 153.029,197.818 152.706 C 197.694 152.202,187.627 134.958,187.449 134.945 C 187.366 134.938,175.518 155.020,161.119 179.571 M196.408 163.692 C 195.239 165.695,186.751 180.173,177.546 195.867 L 160.808 224.400 172.846 224.469 C 179.467 224.508,184.919 224.503,184.963 224.459 C 185.060 224.362,198.642 160.152,198.578 160.093 C 198.554 160.070,197.577 161.690,196.408 163.692 M202.150 160.000 C 202.150 160.073,205.188 174.593,208.900 192.267 L 215.649 224.400 227.721 224.469 C 238.111 224.529,239.772 224.486,239.646 224.157 C 239.488 223.745,237.320 220.024,216.404 184.267 C 208.897 171.433,202.619 160.693,202.452 160.400 C 202.286 160.107,202.150 159.927,202.150 160.000 M199.847 172.725 C 199.577 174.013,197.009 186.167,194.139 199.733 L 188.921 224.400 200.236 224.470 C 206.458 224.508,211.595 224.494,211.651 224.438 C 211.749 224.340,200.562 170.610,200.412 170.458 C 200.372 170.417,200.117 171.437,199.847 172.725 M230.081 246.809 C 232.207 247.440,233.036 248.266,232.447 249.165 C 231.900 250.000,231.523 250.035,230.349 249.359 C 227.779 247.880,225.001 248.686,224.622 251.021 C 224.420 252.266,225.439 253.340,227.485 254.038 C 231.851 255.530,233.210 256.827,233.172 259.466 C 233.100 264.567,226.572 266.968,222.331 263.454 L 221.328 262.623 221.882 261.845 C 222.553 260.903,222.731 260.889,223.818 261.700 C 226.709 263.859,230.667 262.878,230.667 260.003 C 230.667 258.060,230.079 257.527,226.835 256.525 C 223.805 255.589,222.409 254.245,222.199 252.060 C 221.816 248.067,225.670 245.499,230.081 246.809 M248.331 247.275 C 254.931 250.333,255.148 260.698,248.682 264.000 C 241.159 267.841,233.433 260.924,235.958 252.610 C 237.519 247.472,243.339 244.962,248.331 247.275 M267.381 246.895 C 270.238 247.882,270.972 248.660,270.017 249.689 L 269.368 250.390 267.857 249.595 C 262.109 246.571,256.514 252.188,258.805 258.681 C 260.269 262.830,265.266 264.089,269.121 261.282 C 269.501 261.005,269.688 261.056,270.256 261.590 L 270.936 262.229 270.335 262.874 C 267.641 265.764,261.678 265.730,258.442 262.806 C 254.928 259.632,254.822 252.396,258.239 248.979 C 260.556 246.662,264.263 245.817,267.381 246.895 M116.533 247.733 L 116.533 248.800 113.600 248.800 L 110.667 248.800 110.667 256.800 L 110.667 264.800 109.333 264.800 L 108.000 264.800 108.000 256.800 L 108.000 248.800 105.067 248.800 L 102.133 248.800 102.133 247.733 L 102.133 246.667 109.333 246.667 L 116.533 246.667 116.533 247.733 M127.389 247.068 C 131.895 248.406,132.039 255.068,127.593 256.536 L 126.696 256.832 129.489 260.616 C 131.026 262.697,132.376 264.432,132.490 264.472 C 132.604 264.511,134.305 260.516,136.269 255.593 L 139.842 246.643 141.174 246.721 L 142.506 246.800 145.922 255.333 C 147.801 260.027,149.406 264.077,149.487 264.333 C 149.614 264.730,149.458 264.800,148.451 264.800 C 147.031 264.800,146.945 264.705,145.974 262.067 L 145.213 260.000 141.161 260.000 L 137.109 260.000 136.204 262.333 L 135.298 264.667 132.403 264.667 L 129.508 264.667 126.838 261.000 L 124.168 257.333 122.884 257.333 L 121.600 257.333 121.600 261.067 L 121.600 264.800 120.267 264.800 L 118.933 264.800 118.933 255.733 L 118.933 246.667 122.485 246.667 C 124.871 246.667,126.480 246.798,127.389 247.068 M155.398 254.267 C 157.047 258.373,158.397 261.524,158.398 261.269 C 158.400 260.729,163.649 247.496,164.057 247.000 C 164.318 246.684,166.667 246.510,166.667 246.807 C 166.667 246.884,165.028 250.970,163.025 255.887 L 159.383 264.826 158.175 264.746 L 156.966 264.667 155.725 261.600 C 155.042 259.913,153.392 255.857,152.057 252.587 L 149.631 246.640 151.015 246.720 L 152.400 246.800 155.398 254.267 M180.267 247.733 L 180.267 248.800 175.867 248.800 L 171.467 248.800 171.467 251.733 L 171.467 254.667 175.083 254.667 L 178.699 254.667 178.616 255.667 L 178.533 256.667 175.000 256.741 L 171.467 256.815 171.467 259.741 L 171.467 262.667 175.867 262.667 L 180.267 262.667 180.267 263.733 L 180.267 264.800 174.667 264.800 L 169.067 264.800 169.067 255.733 L 169.067 246.667 174.667 246.667 L 180.267 246.667 180.267 247.733 M186.133 254.667 L 186.133 262.667 190.000 262.667 L 193.867 262.667 193.867 263.733 L 193.867 264.800 188.667 264.800 L 183.467 264.800 183.467 255.733 L 183.467 246.667 184.800 246.667 L 186.133 246.667 186.133 254.667 M199.200 255.733 L 199.200 264.800 197.867 264.800 L 196.533 264.800 196.533 255.733 L 196.533 246.667 197.867 246.667 L 199.200 246.667 199.200 255.733 M210.674 253.422 L 215.867 260.177 215.938 253.422 L 216.009 246.667 217.205 246.667 L 218.400 246.667 218.400 255.733 L 218.400 264.800 217.494 264.800 C 216.391 264.800,216.513 264.935,210.533 257.105 L 206.000 251.169 205.929 257.985 L 205.858 264.800 204.662 264.800 L 203.467 264.800 203.467 255.733 L 203.467 246.667 204.474 246.667 C 205.476 246.667,205.508 246.701,210.674 253.422 M276.267 250.667 L 276.267 254.667 281.067 254.667 L 285.867 254.667 285.867 250.667 L 285.867 246.667 287.200 246.667 L 288.533 246.667 288.533 255.733 L 288.533 264.800 287.200 264.800 L 285.867 264.800 285.867 260.667 L 285.867 256.533 281.067 256.533 L 276.267 256.533 276.267 260.667 L 276.267 264.800 274.933 264.800 L 273.600 264.800 273.600 255.733 L 273.600 246.667 274.933 246.667 L 276.267 246.667 276.267 250.667 M295.467 255.733 L 295.467 264.800 294.133 264.800 L 292.800 264.800 292.800 255.733 L 292.800 246.667 294.133 246.667 L 295.467 246.667 295.467 255.733 M121.600 252.108 L 121.600 255.467 123.133 255.465 C 126.556 255.462,128.267 254.315,128.267 252.025 C 128.267 249.662,127.356 248.957,124.156 248.841 L 121.600 248.749 121.600 252.108 M241.867 249.225 C 237.444 251.141,236.763 258.914,240.771 261.731 C 243.510 263.656,248.260 262.610,249.851 259.732 C 253.126 253.808,247.718 246.691,241.867 249.225 M140.589 250.964 C 140.024 252.457,138.324 256.853,137.997 257.667 C 137.825 258.096,138.070 258.133,141.038 258.133 C 142.814 258.133,144.267 258.027,144.267 257.898 C 144.267 257.768,143.561 255.832,142.699 253.595 L 141.132 249.529 140.589 250.964 " stroke="none" fill="#fbfbfb" fill-rule="evenodd"></path><path id="path2" d="M199.476 158.159 C 199.006 158.924,198.585 159.980,198.541 160.508 C 198.432 161.809,185.397 223.444,185.071 224.200 C 184.815 224.793,184.836 224.800,186.872 224.799 C 188.929 224.799,188.933 224.798,188.987 224.066 C 189.111 222.351,200.533 169.041,200.533 170.175 C 200.533 170.247,203.053 182.334,206.133 197.035 C 209.213 211.736,211.733 223.998,211.733 224.282 C 211.733 224.748,211.931 224.800,213.705 224.800 L 215.677 224.800 215.437 223.800 C 214.918 221.639,202.133 160.424,202.133 160.102 C 202.133 159.914,201.728 159.087,201.232 158.264 L 200.332 156.769 199.476 158.159 " stroke="none" fill="#8cc43d" fill-rule="evenodd"></path><path id="path3" d="M215.641 224.600 C 215.709 224.710,221.218 224.800,227.882 224.800 C 234.547 224.800,240.000 224.710,240.000 224.600 C 240.000 224.490,234.491 224.400,227.759 224.400 C 221.026 224.400,215.573 224.490,215.641 224.600 M166.733 224.733 C 170.070 224.775,175.530 224.775,178.867 224.733 C 182.203 224.691,179.473 224.656,172.800 224.656 C 166.127 224.656,163.397 224.691,166.733 224.733 M194.751 224.733 C 197.951 224.776,203.111 224.776,206.218 224.733 C 209.325 224.690,206.707 224.656,200.400 224.656 C 194.093 224.656,191.551 224.691,194.751 224.733 M249.933 224.733 C 252.977 224.776,257.957 224.776,261.000 224.733 C 264.043 224.690,261.553 224.655,255.467 224.655 C 249.380 224.655,246.890 224.690,249.933 224.733 M252.867 228.466 C 256.350 228.509,262.050 228.509,265.533 228.466 C 269.017 228.424,266.167 228.390,259.200 228.390 C 252.233 228.390,249.383 228.424,252.867 228.466 M119.053 255.733 C 119.053 260.793,119.089 262.863,119.133 260.333 C 119.177 257.803,119.177 253.663,119.133 251.133 C 119.089 248.603,119.053 250.673,119.053 255.733 M183.587 255.733 C 183.587 260.793,183.622 262.863,183.666 260.333 C 183.710 257.803,183.710 253.663,183.666 251.133 C 183.622 248.603,183.587 250.673,183.587 255.733 M199.053 255.733 C 199.053 260.793,199.089 262.863,199.133 260.333 C 199.177 257.803,199.177 253.663,199.133 251.133 C 199.089 248.603,199.053 250.673,199.053 255.733 M203.587 255.733 C 203.587 260.793,203.622 262.863,203.666 260.333 C 203.710 257.803,203.710 253.663,203.666 251.133 C 203.622 248.603,203.587 250.673,203.587 255.733 M216.116 253.600 C 216.116 257.487,216.154 259.077,216.199 257.133 C 216.245 255.190,216.245 252.010,216.199 250.067 C 216.154 248.123,216.116 249.713,216.116 253.600 M288.387 255.733 C 288.387 260.793,288.422 262.863,288.466 260.333 C 288.510 257.803,288.510 253.663,288.466 251.133 C 288.422 248.603,288.387 250.673,288.387 255.733 M292.920 255.733 C 292.920 260.793,292.956 262.863,293.000 260.333 C 293.043 257.803,293.043 253.663,293.000 251.133 C 292.956 248.603,292.920 250.673,292.920 255.733 M122.200 248.724 C 122.603 248.785,123.263 248.785,123.667 248.724 C 124.070 248.663,123.740 248.613,122.933 248.613 C 122.127 248.613,121.797 248.663,122.200 248.724 M250.729 255.733 C 250.729 256.247,250.783 256.457,250.850 256.200 C 250.918 255.943,250.918 255.523,250.850 255.267 C 250.783 255.010,250.729 255.220,250.729 255.733 M173.411 256.731 C 174.407 256.783,175.967 256.782,176.878 256.730 C 177.788 256.679,176.973 256.636,175.067 256.637 C 173.160 256.637,172.415 256.680,173.411 256.731 M243.936 262.855 C 244.268 262.919,244.748 262.917,245.003 262.850 C 245.258 262.783,244.987 262.731,244.400 262.734 C 243.813 262.737,243.605 262.791,243.936 262.855 " stroke="none" fill="#98b19b" fill-rule="evenodd"></path><path id="path4" d="M134.085 228.466 C 137.652 228.509,143.412 228.508,146.885 228.466 C 150.358 228.424,147.440 228.390,140.400 228.390 C 133.360 228.390,130.518 228.424,134.085 228.466 M227.267 246.584 C 227.523 246.651,227.943 246.651,228.200 246.584 C 228.457 246.517,228.247 246.462,227.733 246.462 C 227.220 246.462,227.010 246.517,227.267 246.584 M243.936 246.589 C 244.268 246.652,244.748 246.650,245.003 246.583 C 245.258 246.516,244.987 246.464,244.400 246.467 C 243.813 246.470,243.605 246.525,243.936 246.589 M264.203 246.589 C 264.535 246.652,265.015 246.650,265.270 246.583 C 265.525 246.516,265.253 246.464,264.667 246.467 C 264.080 246.470,263.871 246.525,264.203 246.589 M102.206 247.733 C 102.206 248.393,102.258 248.663,102.322 248.333 C 102.385 248.003,102.385 247.463,102.322 247.133 C 102.258 246.803,102.206 247.073,102.206 247.733 M116.339 247.733 C 116.339 248.393,116.391 248.663,116.455 248.333 C 116.518 248.003,116.518 247.463,116.455 247.133 C 116.391 246.803,116.339 247.073,116.339 247.733 M218.253 255.733 C 218.253 260.793,218.289 262.863,218.333 260.333 C 218.377 257.803,218.377 253.663,218.333 251.133 C 218.289 248.603,218.253 250.673,218.253 255.733 M273.720 255.733 C 273.720 260.793,273.756 262.863,273.800 260.333 C 273.843 257.803,273.843 253.663,273.800 251.133 C 273.756 248.603,273.720 250.673,273.720 255.733 M276.123 250.733 L 276.133 254.800 280.933 254.809 L 285.733 254.818 281.007 254.736 L 276.280 254.655 276.196 250.660 L 276.112 246.666 276.123 250.733 M173.800 248.732 C 175.010 248.781,176.990 248.781,178.200 248.732 C 179.410 248.682,178.420 248.642,176.000 248.642 C 173.580 248.642,172.590 248.682,173.800 248.732 M108.118 256.800 C 108.118 261.273,108.155 263.103,108.199 260.867 C 108.244 258.630,108.244 254.970,108.199 252.733 C 108.155 250.497,108.118 252.327,108.118 256.800 M110.518 256.800 C 110.518 261.273,110.555 263.103,110.599 260.867 C 110.644 258.630,110.644 254.970,110.599 252.733 C 110.555 250.497,110.518 252.327,110.518 256.800 M130.729 251.733 C 130.729 252.247,130.783 252.457,130.850 252.200 C 130.918 251.943,130.918 251.523,130.850 251.267 C 130.783 251.010,130.729 251.220,130.729 251.733 M178.462 255.733 C 178.462 256.247,178.517 256.457,178.584 256.200 C 178.651 255.943,178.651 255.523,178.584 255.267 C 178.517 255.010,178.462 255.220,178.462 255.733 M237.929 255.733 C 237.929 256.247,237.983 256.457,238.050 256.200 C 238.118 255.943,238.118 255.523,238.050 255.267 C 237.983 255.010,237.929 255.220,237.929 255.733 M276.108 260.667 C 276.108 263.013,276.149 263.938,276.199 262.721 C 276.248 261.504,276.248 259.584,276.198 258.454 C 276.148 257.324,276.108 258.320,276.108 260.667 M136.974 259.933 C 136.905 260.043,138.128 260.102,139.691 260.063 C 144.935 259.933,145.498 259.835,141.282 259.784 C 138.981 259.756,137.042 259.823,136.974 259.933 M173.533 262.865 C 174.743 262.914,176.723 262.914,177.933 262.865 C 179.143 262.816,178.153 262.775,175.733 262.775 C 173.313 262.775,172.323 262.816,173.533 262.865 " stroke="none" fill="#7c7c7c" fill-rule="evenodd"></path></g></svg>