<svg id="Outline-Expanded" enable-background="new 0 0 64 64" height="76" viewBox="0 0 64 64" width="80" xmlns="http://www.w3.org/2000/svg"><path d="m54.99 46.75c1.82-1.27 3.01-3.37 3.01-5.75 0-3.86-3.14-7-7-7s-7 3.14-7 7c0 2.38 1.19 4.48 3.01 5.75-4.1 1.6-7.01 5.59-7.01 10.25v4c0 .55.45 1 1 1h20c.55 0 1-.45 1-1v-4c0-4.66-2.91-8.65-7.01-10.25zm-8.99-5.75c0-2.76 2.24-5 5-5s5 2.24 5 5-2.24 5-5 5-5-2.24-5-5zm14 19h-18v-3c0-4.96 4.04-9 9-9s9 4.04 9 9z" fill="#ECB84C"/><path d="m16.99 46.75c1.82-1.27 3.01-3.37 3.01-5.75h3v-2h-3.29c-.86-2.89-3.54-5-6.71-5-3.86 0-7 3.14-7 7 0 2.38 1.19 4.48 3.01 5.75-4.1 1.6-7.01 5.59-7.01 10.25v4c0 .55.45 1 1 1h20c.55 0 1-.45 1-1v-4c0-4.66-2.91-8.65-7.01-10.25zm-3.99-10.75c2.05 0 3.81 1.24 4.59 3h-9.18c.78-1.76 2.54-3 4.59-3zm-5 5h10c0 1.13-.37 2.17-1 3-1.1 0-2-.9-2-2h-2c0 1.53.85 2.85 2.12 3.53-.64.3-1.36.47-2.12.47-2.76 0-5-2.24-5-5zm14 19h-18v-3c0-4.96 4.04-9 9-9s9 4.04 9 9z" fill="#ECB84C"/><path d="m20 21h-2c0 2.76-2.24 5-5 5v2c2.76 0 5 2.24 5 5h2c0-2.76 2.24-5 5-5v-2c-2.76 0-5-2.24-5-5zm-1 8.4c-.59-.98-1.42-1.81-2.4-2.4.98-.59 1.81-1.42 2.4-2.4.59.98 1.42 1.81 2.4 2.4-.98.59-1.81 1.42-2.4 2.4z" fill="#ECB84C"/><path d="m57 28h-24c-2.757 0-5-2.243-5-5v-16c0-2.757 2.243-5 5-5h24c2.757 0 5 2.243 5 5v16c0 2.757-2.243 5-5 5zm-24-24c-1.654 0-3 1.346-3 3v16c0 1.654 1.346 3 3 3h24c1.654 0 3-1.346 3-3v-16c0-1.654-1.346-3-3-3z" fill="#ECB84C"/><path d="m35.5 36c-1.93 0-3.5-1.57-3.5-3.5s1.57-3.5 3.5-3.5 3.5 1.57 3.5 3.5-1.57 3.5-3.5 3.5zm0-5c-.827 0-1.5.673-1.5 1.5s.673 1.5 1.5 1.5 1.5-.673 1.5-1.5-.673-1.5-1.5-1.5z" fill="#ECB84C"/><path d="m40 42c-1.654 0-3-1.346-3-3s1.346-3 3-3 3 1.346 3 3-1.346 3-3 3zm0-4c-.551 0-1 .449-1 1s.449 1 1 1 1-.449 1-1-.449-1-1-1z" fill="#ECB84C"/><path d="m45 24c-4.962 0-9-4.038-9-9s4.038-9 9-9 9 4.038 9 9-4.038 9-9 9zm0-16c-3.86 0-7 3.14-7 7s3.14 7 7 7 7-3.14 7-7-3.14-7-7-7z" fill="#ECB84C"/><path d="m41 12h2v2h-2z" fill="#ECB84C"/><path d="m47 12h2v2h-2z" fill="#ECB84C"/><path d="m45 20c-2.206 0-4-1.794-4-4h2c0 1.103.897 2 2 2s2-.897 2-2h2c0 2.206-1.794 4-4 4z" fill="#ECB84C"/><path d="m51 58.95c-.256 0-.512-.098-.707-.293l-3.536-3.536c-.566-.566-.878-1.32-.878-2.121s.312-1.555.878-2.121c1.169-1.17 3.072-1.17 4.243 0 1.169-1.17 3.072-1.17 4.243 0 .566.566.878 1.32.878 2.121s-.312 1.555-.878 2.121l-3.536 3.536c-.195.195-.451.293-.707.293zm-2.122-6.95c-.256 0-.512.098-.707.292-.39.39-.39 1.024 0 1.414l2.829 2.83 2.829-2.829c.39-.39.39-1.024 0-1.414s-1.025-.389-1.415 0l-.707.707c-.391.391-1.023.391-1.414 0l-.707-.707c-.195-.195-.451-.293-.708-.293z" fill="#ECB84C"/></svg>
